<?xml version="1.0" encoding="UTF-8"?>
<svg width="43px" height="33px" viewBox="0 0 43 33" version="1.1" xmlns="http://www.w3.org/2000/svg" xmlns:xlink="http://www.w3.org/1999/xlink">
    <!-- Generator: Sketch 52.3 (67297) - http://www.bohemiancoding.com/sketch -->
    <title>Group 4 Copy</title>
    <desc>Created with Sketch.</desc>
    <defs>
        <polygon id="path-1" points="0 0 43 0 43 33 0 33"></polygon>
    </defs>
    <g id="Page-1" stroke="none" stroke-width="1" fill="none" fill-rule="evenodd">
        <g id="HomeV4" transform="translate(-732.000000, -1463.000000)">
            <g id="Group-4-Copy" transform="translate(732.000000, 1463.000000)">
                <mask id="mask-2" fill="white">
                    <use xlink:href="#path-1"></use>
                </mask>
                <g id="Clip-2"></g>
                <path d="M5,32 L24,32 L24,13 L5,13 L5,32 Z" id="Stroke-1" stroke="#000000" stroke-width="2" mask="url(#mask-2)"></path>
                <path d="M10.6632293,21.8707942 C10.9261671,22.1455711 11.190006,22.4277867 11.4544083,22.7164111 C11.5204244,22.7887388 11.5865531,22.861181 11.6530198,22.9339666 L11.7522692,23.0437171 C11.7687169,23.0603113 11.771308,23.0606546 11.7813343,23.0700389 C11.8128779,23.0983062 11.8446467,23.126688 11.8765282,23.1552987 C11.9377001,23.2116045 11.994591,23.2676814 12.0499049,23.3253605 L12.1316927,23.4133669 L12.172136,23.4586862 L12.1923013,23.4815747 L12.2023276,23.4931334 L12.2073971,23.4990845 C12.2089743,23.4983978 12.2104388,23.495079 12.2121287,23.4932479 C12.3318814,23.3281071 12.4641388,23.171664 12.5989874,23.0180819 C13.2564444,22.2074846 13.9341794,21.4004349 14.6031273,20.6055161 C15.9444027,19.0154498 17.2710329,17.4670405 18.464617,15.9820325 C22.468278,10.9280156 27.4805429,6.00377661 32.5712159,1.96040284 C32.6967141,2.12439918 32.466559,2.7059968 32.9500761,2.45101854 C33.1838361,2.31380179 33.3908967,2.19764248 33.5781301,2.1037995 C33.7666026,2.01155871 33.9324313,1.93865873 34.0788834,1.88200961 C34.3716748,1.7690547 34.5868467,1.72178988 34.750535,1.71824216 C35.0779116,1.71103227 35.1996922,1.87811856 35.3220359,2.04463264 C35.444605,2.21114672 34.0586054,3.01544976 34.6031817,2.85763333 C34.2853808,3.09670405 33.9301782,3.39574273 33.5884944,3.68493935 C33.248275,3.97596704 32.9207857,4.25658045 32.6847726,4.49153124 C32.2080149,4.95605402 32.0543529,5.18493935 32.7284829,4.75738155 C33.258076,4.57633326 34.7836557,3.09636072 35.3931215,3.03215839 C35.9940255,2.96143282 35.3486226,3.84824903 35.9478368,3.77832456 C36.155686,3.62130922 36.4617708,3.37766079 36.77653,3.14740215 C37.091064,2.9165713 37.4055979,2.68585489 37.615137,2.53215839 C38.1510388,2.39574273 37.555317,3.34561685 37.9722547,3.03959716 C39.341356,2.30235752 40.9732824,1.05207141 42.7252994,0 C42.7772336,0.0894941634 42.9422738,0.111123827 42.9881245,0.189288167 C43.0109936,0.228313115 43.0041216,0.281528954 42.9383308,0.364385443 C42.876145,0.446669718 42.7580822,0.558251316 42.5559783,0.714236667 C42.2172235,0.930304417 41.8781307,1.14660105 41.5390379,1.36289769 C41.2049019,1.58949416 40.8706533,1.81609064 40.5360667,2.042916 C40.1995649,2.26550698 39.8713997,2.50457771 39.5416573,2.74113069 C39.2132668,2.98008698 38.8787928,3.20828565 38.5551338,3.45616846 C37.2470917,4.42446784 35.9698046,5.44975967 34.707388,6.5 C33.4540964,7.56431678 32.2154501,8.65335317 31.0039537,9.78130007 C29.7948231,10.9118791 28.5992112,12.0623713 27.4307492,13.2465095 C26.2619492,14.4298466 25.1103855,15.6342412 23.9784239,16.8595789 C22.8489406,18.0872053 21.736919,19.333257 20.6442741,20.5960174 C19.5516292,21.8588922 18.4782484,23.1385901 17.4262721,24.4317922 L16.6418524,25.4042115 L16.2537545,25.8925383 L15.9186046,26.3180362 L15.5239727,26.8236439 L15.1292281,27.3292515 L14.738877,27.8456168 L14.3484134,28.362211 L13.9591889,28.8886473 C13.4399601,29.5926986 12.9209566,30.2964065 12.4020657,31 C10.880429,29.1858549 9.36036939,27.3734264 7.84211231,25.5631724 C7.02074165,24.5753033 6.20027224,23.5886931 5.38104203,22.6034562 C3.74663722,20.6294347 2.1256384,18.6538109 0.521312582,16.6769284 C-0.759917494,14.9910735 0.570768311,15.9356832 1.82338391,16.947013 C1.40610824,16.6102083 1.63964292,16.4078737 1.22146601,16.0701534 C1.45511335,15.8678187 2.52376265,16.340238 3.96102048,17.8916228 C3.62113908,17.4868391 3.28182096,17.0826276 2.9416016,16.6773861 C2.67945244,16.2053101 3.17502362,16.4750515 3.33060076,16.3403525 C3.67082012,16.7454795 4.0102509,17.1498054 4.08820845,17.0821698 C4.16594069,17.0148775 4.32163048,16.8799496 4.39947537,16.8125429 C4.06004459,16.408217 3.38005649,15.5983062 3.04051305,15.1939803 C3.38005649,15.5983062 3.71982523,16.00309 3.79755747,15.9356832 C3.87540236,15.8682765 4.03109215,15.7333486 4.10916236,15.665713 C4.86643208,16.4078737 5.72982321,17.7565805 6.48788152,18.49897 L6.72119089,18.2967498 C6.11904768,17.4193179 5.02200921,16.2730602 4.34235907,15.4636072 C4.76053599,15.8012131 4.83826823,15.7339208 4.99407067,15.5988785 C6.09110914,16.7451362 6.87688068,18.1618219 8.12938363,19.1728084 L7.11052802,17.9593729 C8.17895201,18.43122 9.56585287,20.7240787 10.6632293,21.8707942" id="Fill-3" fill="#00D800" mask="url(#mask-2)"></path>
            </g>
        </g>
    </g>
</svg>