<?xml version="1.0" encoding="UTF-8"?>
<svg width="189px" height="40px" viewBox="0 0 189 40" version="1.1" xmlns="http://www.w3.org/2000/svg" xmlns:xlink="http://www.w3.org/1999/xlink">
    <!-- Generator: Sketch 52.3 (67297) - http://www.bohemiancoding.com/sketch -->
    <title>Group 18</title>
    <desc>Created with Sketch.</desc>
    <defs>
        <polygon id="path-1" points="0.455971488 0.219816092 24.759926 0.219816092 24.759926 26.6666667 0.455971488 26.6666667"></polygon>
        <polygon id="path-3" points="0.184296694 0.219816092 24.4882512 0.219816092 24.4882512 26.6666667 0.184296694 26.6666667"></polygon>
    </defs>
    <g id="Page-1" stroke="none" stroke-width="1" fill="none" fill-rule="evenodd">
        <g id="Newsletter" transform="translate(-43.000000, -35.000000)">
            <g id="Group-18" transform="translate(43.000000, 35.000000)">
                <polygon id="Fill-1" fill="#FFFFFF" points="23.3604469 13 17.627569 13 16.9880159 13 16.9880159 13.6382254 16.9880159 22.748305 7.01243701 22.748305 7.01243701 13.6382254 7.01243701 13 6.37288391 13 0.640006039 13 0 13 0 13.6382254 0 38.3617746 0 39 0.640006039 39 6.37288391 39 7.01243701 39 7.01243701 38.3617746 7.01243701 28.8629742 16.9880159 28.8629742 16.9880159 38.3617746 16.9880159 39 17.627569 39 23.3604469 39 24 39 24 38.3617746 24 13.6382254 24 13"></polygon>
                <path d="M53.8362333,13 L48.1263187,13 L47.7075398,13 L47.5376536,13.3783248 L36.404165,38.1018741 L36,39 L36.9937434,39 L42.9169293,39 L43.3480385,39 L43.5129013,38.6054032 L45.5606704,33.7025486 L56.2950176,33.7025486 L58.3427867,38.6054032 L58.5076494,39 L58.9387587,39 L65.0053432,39 L66,39 L65.5940083,38.1014221 L54.4253551,13.3778728 L54.2540987,13 L53.8362333,13 Z M50.9454263,20.9226731 L53.9412705,28.0814645 L47.9500388,28.0814645 L50.9454263,20.9226731 Z" id="Fill-2" fill="#FFFFFF"></path>
                <g id="Group-17" transform="translate(78.000000, 0.000000)">
                    <g id="Group-5" transform="translate(0.000000, 13.333333)">
                        <mask id="mask-2" fill="white">
                            <use xlink:href="#path-1"></use>
                        </mask>
                        <g id="Clip-4"></g>
                        <path d="M7.52144256,16.0690115 L13.6470831,16.0690115 C17.21055,16.0690115 17.6224426,17.4814253 17.6224426,18.5444138 C17.6224426,19.3811954 17.3463186,19.9503908 16.7532483,20.3347586 C16.0881657,20.7669425 15.0428393,20.9853333 13.6470831,20.9853333 L7.52144256,20.9853333 L7.52144256,16.0690115 Z M16.3684178,8.19912644 C16.3684178,8.96832184 16.1055955,9.50487356 15.5409632,9.88878161 C14.9139508,10.3145287 13.9388021,10.5310805 12.6434963,10.5310805 L7.52144256,10.5310805 L7.52144256,5.90257471 L12.6434963,5.90257471 C13.9401781,5.90257471 14.9171616,6.11406897 15.5483021,6.53062069 C16.1074302,6.90257471 16.3684178,7.43268966 16.3684178,8.19912644 Z M20.930426,12.8074023 C21.5734921,12.3067126 22.1096864,11.7076322 22.5321285,11.0161379 C23.1779467,9.95912644 23.5054426,8.74487356 23.5054426,7.40786207 C23.5054426,5.18395402 22.5880872,3.39912644 20.7795211,2.10257471 C19.0379219,0.85337931 16.5422566,0.219816092 13.3604095,0.219816092 L1.10362438,0.219816092 L0.455971488,0.219816092 L0.455971488,0.869011494 L0.455971488,26.0175172 L0.455971488,26.6667126 L1.10362438,26.6667126 L14.076864,26.6667126 C17.4697029,26.6667126 20.1080169,26.0294713 21.9184178,24.7733793 C23.8040417,23.4644138 24.759926,21.5742989 24.759926,19.1554483 C24.759926,17.4621149 24.3049178,16.006023 23.4086616,14.828092 C22.7614674,13.9798161 21.9312607,13.3030345 20.930426,12.8074023 Z" id="Fill-3" fill="#FFFFFF" mask="url(#mask-2)"></path>
                    </g>
                    <polygon id="Fill-6" fill="#FFFFFF" points="39.9892178 13.5532874 39.3411062 13.5532874 39.3411062 14.2024828 39.3411062 39.3505287 39.3411062 39.9997241 39.9892178 39.9997241 45.7947012 39.9997241 46.4423541 39.9997241 46.4423541 39.3505287 46.4423541 14.2024828 46.4423541 13.5532874 45.7947012 13.5532874"></polygon>
                    <g id="Group-10" transform="translate(62.380165, 13.333333)">
                        <mask id="mask-4" fill="white">
                            <use xlink:href="#path-3"></use>
                        </mask>
                        <g id="Clip-9"></g>
                        <path d="M7.24976777,16.0690115 L13.3754083,16.0690115 C16.9388752,16.0690115 17.3507678,17.4814253 17.3507678,18.5444138 C17.3507678,19.3811954 17.0746438,19.9503908 16.4815736,20.3347586 C15.8164909,20.7669425 14.7711645,20.9853333 13.3754083,20.9853333 L7.24976777,20.9853333 L7.24976777,16.0690115 Z M16.096743,8.19912644 C16.096743,8.96832184 15.8339207,9.50487356 15.2697471,9.88878161 C14.642276,10.3145287 13.6671273,10.5310805 12.3722802,10.5310805 L7.24976777,10.5310805 L7.24976777,5.90257471 L12.3722802,5.90257471 C13.6685033,5.90257471 14.6459455,6.11406897 15.2766273,6.53062069 C15.8357554,6.90257471 16.096743,7.43268966 16.096743,8.19912644 Z M20.6587512,12.8074023 C21.3018174,12.3067126 21.8380116,11.7076322 22.2604537,11.0161379 C22.9062719,9.95912644 23.2337678,8.74487356 23.2337678,7.40786207 C23.2337678,5.18395402 22.3168711,3.39912644 20.5078463,2.10257471 C18.7667058,0.85337931 16.2705818,0.219816092 13.0887347,0.219816092 L0.831949587,0.219816092 L0.184296694,0.219816092 L0.184296694,0.869011494 L0.184296694,26.0175172 L0.184296694,26.6667126 L0.831949587,26.6667126 L13.8056479,26.6667126 C17.1980281,26.6667126 19.8363421,26.0294713 21.646743,24.7733793 C23.5323669,23.4644138 24.4882512,21.5742989 24.4882512,19.1554483 C24.4882512,17.4621149 24.0337017,16.006023 23.1374455,14.828092 C22.4902512,13.9798161 21.659586,13.3030345 20.6587512,12.8074023 Z" id="Fill-8" fill="#FFFFFF" mask="url(#mask-4)"></path>
                    </g>
                    <polygon id="Fill-11" fill="#FFFFFF" points="107.903329 13.5532874 102.097846 13.5532874 101.450193 13.5532874 101.450193 14.2024828 101.450193 39.3505287 101.450193 39.9997241 102.097846 39.9997241 107.903329 39.9997241 108.550982 39.9997241 108.550982 39.3505287 108.550982 14.2024828 108.550982 13.5532874"></polygon>
                    <path d="M46.0613306,10.2998621 C46.0503223,10.132046 46.0374793,9.9623908 46.0283058,9.79273563 C45.9705124,8.71733333 46.2636074,7.76285057 47.0185909,6.97664368 C47.284624,6.69986207 47.5722149,6.44285057 47.8501736,6.17756322 C48.3308678,5.71871264 48.7500992,5.2148046 48.966595,4.57342529 C49.2262066,3.80468966 49.3165661,3.024 48.9798967,2.25848276 C48.5258058,1.22491954 47.7396322,0.611586207 46.6062397,0.469057471 C45.3728554,0.313655172 44.1913017,1.09710345 43.6780413,2.18813793 C43.5399793,2.50813793 43.5069545,2.92698851 43.5069545,2.92698851 C43.5069545,2.92698851 43.3588017,2.61756322 42.9359008,2.02078161 C42.5134587,1.42354023 41.4901488,0.776183908 40.4250992,0.841471264 C38.8536694,0.937563218 37.9574132,2.0948046 37.7615579,3.18951724 C37.5340537,4.46124138 37.9170496,5.54997701 38.7839504,6.48652874 C39.459124,7.21618391 40.2576818,7.78216092 41.1131157,8.27227586 C42.5891405,9.1177931 44.1669917,9.72101149 45.7829132,10.2327356 C45.8640992,10.258023 45.9457438,10.2823908 46.0273884,10.3067586 C46.0342686,10.3085977 46.0434421,10.3035402 46.0613306,10.2998621" id="Fill-13" fill="#FFA000"></path>
                    <path d="M102.387088,10.2998621 C102.398096,10.132046 102.410939,9.9623908 102.420113,9.79273563 C102.477906,8.71733333 102.184811,7.76285057 101.429828,6.97664368 C101.163795,6.69986207 100.876204,6.44285057 100.598245,6.17756322 C100.117551,5.71871264 99.6983194,5.2148046 99.4818236,4.57342529 C99.222212,3.80468966 99.1318525,3.024 99.4685219,2.25848276 C99.9226128,1.22491954 100.708786,0.611586207 101.842179,0.469057471 C103.075563,0.313655172 104.257117,1.09710345 104.770377,2.18813793 C104.908439,2.50813793 104.941464,2.92698851 104.941464,2.92698851 C104.941464,2.92698851 105.090076,2.61756322 105.512518,2.02078161 C105.935419,1.42354023 106.95827,0.776183908 108.023319,0.841471264 C109.594749,0.937563218 110.491005,2.0948046 110.686861,3.18951724 C110.914365,4.46124138 110.531369,5.54997701 109.664468,6.48652874 C108.989295,7.21618391 108.190737,7.78216092 107.335303,8.27227586 C105.859278,9.1177931 104.281427,9.72101149 102.665505,10.2327356 C102.584319,10.258023 102.502675,10.2823908 102.42103,10.3067586 C102.41415,10.3085977 102.404976,10.3035402 102.387088,10.2998621" id="Fill-15" fill="#FFA000"></path>
                </g>
            </g>
        </g>
    </g>
</svg>