<svg xmlns="http://www.w3.org/2000/svg" xmlns:xlink="http://www.w3.org/1999/xlink" viewBox="0 0 194.33 53.97"><defs><style>.cls-1{fill:#fff;}.cls-10,.cls-11,.cls-12,.cls-13,.cls-2,.cls-3,.cls-4,.cls-5,.cls-6,.cls-7,.cls-8,.cls-9{stroke:#bc8f5b;stroke-miterlimit:10;stroke-width:0.3px;}.cls-2{fill:url(#linear-gradient);}.cls-3{fill:url(#linear-gradient-2);}.cls-4{fill:url(#linear-gradient-3);}.cls-5{fill:url(#linear-gradient-4);}.cls-6{fill:url(#linear-gradient-5);}.cls-7{fill:url(#linear-gradient-6);}.cls-8{fill:url(#linear-gradient-7);}.cls-9{fill:url(#linear-gradient-8);}.cls-10{fill:url(#linear-gradient-9);}.cls-11{fill:url(#linear-gradient-10);}.cls-12{fill:url(#linear-gradient-11);}.cls-13{fill:url(#linear-gradient-12);}.cls-14{fill:url(#linear-gradient-13);}.cls-15{fill:url(#linear-gradient-14);}</style><linearGradient id="linear-gradient" x1="95.34" y1="-6.74" x2="95.34" y2="31.99" gradientTransform="matrix(1, 0, 0, -1, 0, 52.87)" gradientUnits="userSpaceOnUse"><stop offset="0.15" stop-color="#ffffd6"/><stop offset="0.33" stop-color="#deca94"/><stop offset="0.35" stop-color="#ffffd6"/><stop offset="0.46" stop-color="#deca94"/><stop offset="1" stop-color="#7c6a3e"/></linearGradient><linearGradient id="linear-gradient-2" x1="107.09" y1="-6.74" x2="107.09" y2="31.99" xlink:href="#linear-gradient"/><linearGradient id="linear-gradient-3" x1="116.86" y1="-6.74" x2="116.86" y2="31.99" xlink:href="#linear-gradient"/><linearGradient id="linear-gradient-4" x1="123.96" y1="-6.74" x2="123.96" y2="31.99" xlink:href="#linear-gradient"/><linearGradient id="linear-gradient-5" x1="133.14" y1="-6.74" x2="133.14" y2="31.99" xlink:href="#linear-gradient"/><linearGradient id="linear-gradient-6" x1="145.14" y1="-6.74" x2="145.14" y2="31.99" xlink:href="#linear-gradient"/><linearGradient id="linear-gradient-7" x1="10.45" y1="15.35" x2="10.45" y2="52.18" xlink:href="#linear-gradient"/><linearGradient id="linear-gradient-8" x1="42.51" y1="15.35" x2="42.51" y2="52.18" xlink:href="#linear-gradient"/><linearGradient id="linear-gradient-9" x1="74.53" y1="15.35" x2="74.53" y2="52.18" xlink:href="#linear-gradient"/><linearGradient id="linear-gradient-10" x1="98.16" y1="15.35" x2="98.16" y2="52.18" xlink:href="#linear-gradient"/><linearGradient id="linear-gradient-11" x1="123.18" y1="15.35" x2="123.18" y2="52.18" xlink:href="#linear-gradient"/><linearGradient id="linear-gradient-12" x1="146.81" y1="15.35" x2="146.81" y2="52.18" xlink:href="#linear-gradient"/><linearGradient id="linear-gradient-13" x1="98.66" y1="44.07" x2="98.66" y2="52.87" gradientTransform="matrix(1, 0, 0, -1, 0, 52.87)" gradientUnits="userSpaceOnUse"><stop offset="0.3" stop-color="#873436"/><stop offset="1" stop-color="#cc4d2b"/></linearGradient><linearGradient id="linear-gradient-14" x1="146.81" y1="44.07" x2="146.81" y2="52.87" xlink:href="#linear-gradient-13"/></defs><title>logo</title><g id="Layer_2" data-name="Layer 2"><g id="Layer_1-2" data-name="Layer 1"><path class="cls-1" d="M154.15,34.27a2,2,0,0,1-.6-1.48,1.94,1.94,0,0,1,.6-1.45,2,2,0,0,1,1.43-.58,1.88,1.88,0,0,1,1.4.57,2,2,0,0,1,.57,1.46,2,2,0,0,1-.58,1.48,1.89,1.89,0,0,1-1.39.58A2,2,0,0,1,154.15,34.27Z"/><path class="cls-1" d="M175.66,12.5V34.67h-2.75V32.16a6.17,6.17,0,0,1-2.42,2,7.48,7.48,0,0,1-3.23.69,8.28,8.28,0,0,1-4.12-1A7.11,7.11,0,0,1,160.29,31a8.44,8.44,0,0,1-1-4.23,8.39,8.39,0,0,1,1-4.21,7.27,7.27,0,0,1,2.85-2.84,8.38,8.38,0,0,1,4.12-1,7.57,7.57,0,0,1,3.14.64,6.14,6.14,0,0,1,2.39,1.9V12.5Zm-5.44,19.14a4.9,4.9,0,0,0,1.91-2,6.5,6.5,0,0,0,0-5.83,4.78,4.78,0,0,0-1.91-1.95,5.73,5.73,0,0,0-5.45,0,4.85,4.85,0,0,0-1.91,1.95,6.34,6.34,0,0,0,0,5.83,5,5,0,0,0,1.91,2,5.65,5.65,0,0,0,5.45,0Z"/><path class="cls-1" d="M184.86,27.29l-3.29,3.05v4.33H178.7V12.5h2.87V26.73l8.63-7.89h3.47L187,25.38l7.32,9.29H190.8Z"/><path class="cls-2" d="M99.66,39v11.7H98.21V49.34a3.26,3.26,0,0,1-1.27,1.06,4,4,0,0,1-1.7.36,4.38,4.38,0,0,1-2.18-.54,3.73,3.73,0,0,1-1.5-1.5A4.42,4.42,0,0,1,91,46.49a4.35,4.35,0,0,1,.55-2.22,3.86,3.86,0,0,1,1.5-1.5,4.37,4.37,0,0,1,2.18-.53,4.09,4.09,0,0,1,1.65.33,3.25,3.25,0,0,1,1.26,1V39ZM96.8,49.07a2.63,2.63,0,0,0,1-1,3.39,3.39,0,0,0,0-3.08,2.54,2.54,0,0,0-1-1,2.93,2.93,0,0,0-1.44-.36,2.88,2.88,0,0,0-1.44.36,2.63,2.63,0,0,0-1,1,3.39,3.39,0,0,0,0,3.08,2.73,2.73,0,0,0,1,1,2.88,2.88,0,0,0,1.44.37A2.94,2.94,0,0,0,96.8,49.07Z"/><path class="cls-3" d="M109.8,43.09a3.25,3.25,0,0,1,.93,2.53v5.05h-1.44V49.56a2.33,2.33,0,0,1-1.08.89,4,4,0,0,1-1.66.31,3.45,3.45,0,0,1-2.25-.68,2.17,2.17,0,0,1-.84-1.78,2.19,2.19,0,0,1,.81-1.77,3.91,3.91,0,0,1,2.55-.67h2.39v-.3a1.9,1.9,0,0,0-.56-1.49,2.39,2.39,0,0,0-1.67-.52,4.45,4.45,0,0,0-1.45.24,3.61,3.61,0,0,0-1.2.65l-.63-1.13a4.59,4.59,0,0,1,1.54-.8,6.63,6.63,0,0,1,1.91-.27A3.75,3.75,0,0,1,109.8,43.09Zm-1.5,6.12a2.2,2.2,0,0,0,.91-1.1V47h-2.33Q105,47,105,48.24a1.15,1.15,0,0,0,.49,1,2.21,2.21,0,0,0,1.35.36A2.79,2.79,0,0,0,108.3,49.21Z"/><path class="cls-4" d="M119.8,50.18a2.21,2.21,0,0,1-.82.43,3.37,3.37,0,0,1-1,.15,2.66,2.66,0,0,1-2-.68,2.57,2.57,0,0,1-.69-1.93V43.56h-1.42V42.31h1.42V40.49h1.51v1.82h2.4v1.25h-2.4v4.52a1.43,1.43,0,0,0,.34,1,1.24,1.24,0,0,0,1,.37,1.79,1.79,0,0,0,1.18-.4Z"/><path class="cls-5" d="M123.23,40.42a.94.94,0,0,1-.29-.69,1,1,0,0,1,.29-.7,1,1,0,0,1,.73-.29,1.05,1.05,0,0,1,.74.27.94.94,0,0,1,.29.69,1,1,0,0,1-.29.72,1.08,1.08,0,0,1-1.47,0Zm0,1.89h1.51v8.36h-1.51Z"/><path class="cls-6" d="M136.17,43.16a3.63,3.63,0,0,1,.94,2.7v4.81h-1.52V46A2.56,2.56,0,0,0,135,44.2a2.2,2.2,0,0,0-1.67-.61,2.6,2.6,0,0,0-1.94.72,2.81,2.81,0,0,0-.71,2v4.31h-1.51V42.31h1.45v1.27a2.86,2.86,0,0,1,1.24-1,4.33,4.33,0,0,1,1.77-.34A3.44,3.44,0,0,1,136.17,43.16Z"/><path class="cls-7" d="M149.53,42.31v7.22a4.34,4.34,0,0,1-1.09,3.24,4.52,4.52,0,0,1-3.25,1,7.89,7.89,0,0,1-2.25-.32,4.46,4.46,0,0,1-1.73-.93l.72-1.16a4.33,4.33,0,0,0,1.44.79,5.4,5.4,0,0,0,1.78.29,3,3,0,0,0,2.16-.69,2.84,2.84,0,0,0,.7-2.11V49a3.33,3.33,0,0,1-1.31,1,4.76,4.76,0,0,1-3.86-.19,3.7,3.7,0,0,1-1.52-1.44,4.22,4.22,0,0,1,0-4.2,3.68,3.68,0,0,1,1.52-1.43,4.55,4.55,0,0,1,2.16-.5,4.45,4.45,0,0,1,1.76.34,3.24,3.24,0,0,1,1.33,1V42.32h1.44Zm-2.88,6.34a2.51,2.51,0,0,0,1-1,2.7,2.7,0,0,0,.37-1.41,2.53,2.53,0,0,0-.8-2,2.9,2.9,0,0,0-2.06-.75,2.94,2.94,0,0,0-2.09.75,2.57,2.57,0,0,0-.8,2,2.65,2.65,0,0,0,.37,1.41,2.57,2.57,0,0,0,1,1,3.18,3.18,0,0,0,1.49.35A3.14,3.14,0,0,0,146.65,48.65Z"/><path class="cls-8" d="M20.75,12.28V34.74h-5.2v-9.2H5.35v9.2H.15V12.28h5.2v8.86h10.2V12.28Z"/><path class="cls-9" d="M47.66,29.93H37.23l-2,4.82H29.91l10-22.47h5.14l10,22.47H49.65ZM46,26l-3.56-8.6L38.89,26Z"/><path class="cls-10" d="M83.74,25.1a5.64,5.64,0,0,1,1.09,3.52,5.2,5.2,0,0,1-2.29,4.54c-1.53,1.06-3.76,1.58-6.69,1.58H64.23V12.28h11a10.75,10.75,0,0,1,6.31,1.58,5,5,0,0,1,2.2,4.26A5.39,5.39,0,0,1,82.92,21a5.54,5.54,0,0,1-2.2,2A5.88,5.88,0,0,1,83.74,25.1ZM69.4,16.2v5.29h5.16a5.19,5.19,0,0,0,2.92-.67,2.26,2.26,0,0,0,1-2,2.21,2.21,0,0,0-1-2,5.28,5.28,0,0,0-2.92-.66Zm9.16,14a2.33,2.33,0,0,0,1-2.09q0-2.79-4.14-2.79H69.4v5.55h6.06A5.78,5.78,0,0,0,78.56,30.16Z"/><path class="cls-11" d="M95.57,12.28h5.19V34.74H95.57Z"/><path class="cls-12" d="M132.38,25.1a5.64,5.64,0,0,1,1.1,3.52,5.2,5.2,0,0,1-2.3,4.54c-1.53,1.06-3.76,1.58-6.69,1.58H112.88V12.28h11a10.69,10.69,0,0,1,6.3,1.58,5,5,0,0,1,2.2,4.26,5.47,5.47,0,0,1-.78,2.92,5.61,5.61,0,0,1-2.2,2A5.85,5.85,0,0,1,132.38,25.1ZM118,16.2v5.29h5.17a5.23,5.23,0,0,0,2.92-.67,2.25,2.25,0,0,0,1-2,2.2,2.2,0,0,0-1-2,5.33,5.33,0,0,0-2.92-.66Zm9.16,14a2.31,2.31,0,0,0,1-2.09c0-1.86-1.39-2.79-4.14-2.79H118v5.55h6.07A5.72,5.72,0,0,0,127.2,30.16Z"/><path class="cls-13" d="M144.21,12.28h5.2V34.74h-5.2Z"/><path class="cls-14" d="M101,8.8l0-.45a3.21,3.21,0,0,1,.89-2.52c.24-.25.49-.48.74-.71a3.54,3.54,0,0,0,1-1.44,2.77,2.77,0,0,0,0-2.06A2.51,2.51,0,0,0,101.49,0a2.63,2.63,0,0,0-2.62,1.53,2.35,2.35,0,0,0-.16.66,6.62,6.62,0,0,0-.51-.81A2.76,2.76,0,0,0,96,.35a2.54,2.54,0,0,0-2.38,2.1,3.3,3.3,0,0,0,.91,2.94A8.8,8.8,0,0,0,96.57,7a21.6,21.6,0,0,0,4.18,1.75l.22.06Z"/><path class="cls-15" d="M144.47,8.8l0-.45a3.21,3.21,0,0,0-.89-2.52c-.24-.25-.49-.48-.74-.71a3.54,3.54,0,0,1-1-1.44,2.77,2.77,0,0,1,0-2.06A2.51,2.51,0,0,1,144,0a2.63,2.63,0,0,1,2.62,1.53,2.35,2.35,0,0,1,.16.66,6.62,6.62,0,0,1,.51-.81,2.76,2.76,0,0,1,2.25-1,2.54,2.54,0,0,1,2.38,2.1A3.3,3.3,0,0,1,151,5.39,8.8,8.8,0,0,1,148.9,7a21.6,21.6,0,0,1-4.18,1.75l-.22.06Z"/></g></g></svg>