<?xml version="1.0" encoding="utf-8"?>
<!-- Generator: Adobe Illustrator 22.1.0, SVG Export Plug-In . SVG Version: 6.00 Build 0)  -->
<svg version="1.1" id="Layer_1" xmlns="http://www.w3.org/2000/svg" xmlns:xlink="http://www.w3.org/1999/xlink" x="0px" y="0px"
	 viewBox="0 0 155 48" style="enable-background:new 0 0 155 48;" xml:space="preserve">
<style type="text/css">
	.st0{fill:#FFA507;}
</style>
<g>
	<g>
		<polygon points="18.2,30.4 6.4,30.4 6.4,19 0,19 0,48 6.4,48 6.4,36.3 18.2,36.3 18.2,48 24.6,48 24.6,19 18.2,19 		"/>
		<path d="M42.5,18.7L30.1,48h6.5l2.7-6.5h12.3l2.7,6.5H61L48.4,18.7H42.5z M41.5,35.8l3.9-9.4l3.9,9.4H41.5z"/>
		<path d="M85.6,32.8c2.1-1.1,3.8-3,3.8-6.3v-0.1c0-2-0.7-3.6-2-4.9c-1.7-1.7-4.2-2.6-7.6-2.6H66.4v29h13.8c6.6,0,10.9-2.7,10.9-8
			V40C91.1,36.1,89,34.1,85.6,32.8z M72.6,24.6h6.3c2.7,0,4.2,1,4.2,3v0.1c0,2.2-1.8,3.1-4.6,3.1h-5.9V24.6z M84.7,39.2
			c0,2.2-1.7,3.2-4.5,3.2h-7.6V36H80C83.3,36,84.7,37.2,84.7,39.2L84.7,39.2z"/>
		<rect x="97.7" y="19" width="6.4" height="29"/>
		<path d="M131.6,32.8c2.1-1.1,3.8-3,3.8-6.3v-0.1c0-2-0.7-3.6-2-4.9c-1.7-1.7-4.2-2.6-7.6-2.6h-13.5v29h13.8c6.6,0,10.9-2.7,10.9-8
			V40C137,36.1,135,34.1,131.6,32.8z M118.6,24.6h6.3c2.7,0,4.2,1,4.2,3v0.1c0,2.2-1.8,3.1-4.6,3.1h-5.9
			C118.6,30.8,118.6,24.6,118.6,24.6z M130.7,39.2c0,2.2-1.7,3.2-4.5,3.2h-7.6V36h7.4C129.3,36,130.7,37.2,130.7,39.2L130.7,39.2z"
			/>
		<rect x="143.6" y="19" width="6.4" height="29"/>
	</g>
	<circle class="st0" cx="100.9" cy="8.2" r="8.2"/>
	<circle class="st0" cx="146.8" cy="8.2" r="8.2"/>
</g>
</svg>
