<svg xmlns="http://www.w3.org/2000/svg" xmlns:xlink="http://www.w3.org/1999/xlink" viewBox="0 0 433.46 120.16"><defs><style>.cls-1,.cls-10,.cls-11,.cls-12,.cls-13,.cls-14,.cls-15,.cls-2,.cls-3,.cls-4,.cls-5,.cls-6,.cls-7,.cls-8,.cls-9{stroke:#bc8f5b;stroke-miterlimit:10;stroke-width:0.3px;}.cls-1{fill:url(#linear-gradient);}.cls-2{fill:url(#linear-gradient-2);}.cls-3{fill:url(#linear-gradient-3);}.cls-4{fill:url(#linear-gradient-4);}.cls-5{fill:url(#linear-gradient-5);}.cls-6{fill:url(#linear-gradient-6);}.cls-7{fill:url(#linear-gradient-7);}.cls-8{fill:url(#linear-gradient-8);}.cls-9{fill:url(#linear-gradient-9);}.cls-10{fill:url(#linear-gradient-10);}.cls-11{fill:url(#linear-gradient-11);}.cls-12{fill:url(#linear-gradient-12);}.cls-13{fill:url(#linear-gradient-13);}.cls-14{fill:url(#linear-gradient-14);}.cls-15{fill:url(#linear-gradient-15);}.cls-16{fill:url(#linear-gradient-16);}.cls-17{fill:url(#linear-gradient-17);}</style><linearGradient id="linear-gradient" x1="346.68" y1="214.56" x2="346.68" y2="310.9" gradientTransform="matrix(1, 0, 0, -1, 0, 303.17)" gradientUnits="userSpaceOnUse"><stop offset="0.15" stop-color="#fdfad8"/><stop offset="0.33" stop-color="#ddc994"/><stop offset="0.35" stop-color="#fdfad8"/><stop offset="0.46" stop-color="#ddc994"/><stop offset="1" stop-color="#7d6b3f"/></linearGradient><linearGradient id="linear-gradient-2" x1="373.23" y1="214.56" x2="373.23" y2="310.9" xlink:href="#linear-gradient"/><linearGradient id="linear-gradient-3" x1="415.73" y1="214.56" x2="415.73" y2="310.9" xlink:href="#linear-gradient"/><linearGradient id="linear-gradient-4" x1="212.41" y1="170.24" x2="212.41" y2="256.61" xlink:href="#linear-gradient"/><linearGradient id="linear-gradient-5" x1="238.62" y1="170.24" x2="238.62" y2="256.61" xlink:href="#linear-gradient"/><linearGradient id="linear-gradient-6" x1="260.4" y1="170.24" x2="260.4" y2="256.61" xlink:href="#linear-gradient"/><linearGradient id="linear-gradient-7" x1="276.25" y1="170.24" x2="276.25" y2="256.61" xlink:href="#linear-gradient"/><linearGradient id="linear-gradient-8" x1="296.71" y1="170.24" x2="296.71" y2="256.61" xlink:href="#linear-gradient"/><linearGradient id="linear-gradient-9" x1="323.47" y1="170.24" x2="323.47" y2="256.61" xlink:href="#linear-gradient"/><linearGradient id="linear-gradient-10" x1="23.12" y1="214.56" x2="23.12" y2="310.9" xlink:href="#linear-gradient"/><linearGradient id="linear-gradient-11" x1="94.6" y1="214.56" x2="94.6" y2="310.9" xlink:href="#linear-gradient"/><linearGradient id="linear-gradient-12" x1="166.01" y1="214.56" x2="166.01" y2="310.9" xlink:href="#linear-gradient"/><linearGradient id="linear-gradient-13" x1="218.71" y1="214.56" x2="218.71" y2="310.9" xlink:href="#linear-gradient"/><linearGradient id="linear-gradient-14" x1="274.49" y1="214.56" x2="274.49" y2="310.9" xlink:href="#linear-gradient"/><linearGradient id="linear-gradient-15" x1="327.19" y1="214.56" x2="327.19" y2="310.9" xlink:href="#linear-gradient"/><linearGradient id="linear-gradient-16" x1="219.82" y1="283.54" x2="219.82" y2="303.17" gradientTransform="matrix(1, 0, 0, -1, 0, 303.17)" gradientUnits="userSpaceOnUse"><stop offset="0.3" stop-color="#883537"/><stop offset="1" stop-color="#cd4e2a"/></linearGradient><linearGradient id="linear-gradient-17" x1="327.19" y1="283.54" x2="327.19" y2="303.17" xlink:href="#linear-gradient-16"/></defs><title>Asset 1</title><g id="Layer_2" data-name="Layer 2"><g id="Layer_1-2" data-name="Layer 1"><path class="cls-1" d="M343.55,76.42a4.42,4.42,0,0,1-1.33-3.3,4.32,4.32,0,0,1,1.33-3.23,4.42,4.42,0,0,1,3.2-1.3,4.23,4.23,0,0,1,3.13,1.27,4.42,4.42,0,0,1,1.27,3.26,4.51,4.51,0,0,1-1.3,3.3,4.22,4.22,0,0,1-3.1,1.3A4.4,4.4,0,0,1,343.55,76.42Z"/><path class="cls-2" d="M391.52,27.89V77.32h-6.13v-5.6a13.86,13.86,0,0,1-5.4,4.47,16.7,16.7,0,0,1-7.19,1.53,18.59,18.59,0,0,1-9.2-2.27,16.21,16.21,0,0,1-6.36-6.36,19,19,0,0,1-2.3-9.43,18.77,18.77,0,0,1,2.3-9.39,16.26,16.26,0,0,1,6.36-6.33,18.58,18.58,0,0,1,9.2-2.26,17,17,0,0,1,7,1.43,13.59,13.59,0,0,1,5.33,4.23V27.89ZM379.39,70.56a11.09,11.09,0,0,0,4.27-4.4,14.55,14.55,0,0,0,0-13,10.8,10.8,0,0,0-4.27-4.36,12.75,12.75,0,0,0-12.15,0A11,11,0,0,0,363,53.17a14.3,14.3,0,0,0,0,13,11.3,11.3,0,0,0,4.27,4.4,12.61,12.61,0,0,0,12.15,0Z"/><path class="cls-3" d="M412,60.86l-7.32,6.8v9.66h-6.4V27.89h6.4V59.6L424,42h7.73L416.83,56.6l16.32,20.72h-7.86Z"/><path class="cls-4" d="M222.06,86.91V113h-3.24v-3a7.38,7.38,0,0,1-2.84,2.36,8.84,8.84,0,0,1-3.8.81,9.77,9.77,0,0,1-4.85-1.2,8.59,8.59,0,0,1-3.36-3.35,10.12,10.12,0,0,1-1.21-5,10,10,0,0,1,1.21-5,8.63,8.63,0,0,1,3.36-3.34,9.77,9.77,0,0,1,4.85-1.2,9,9,0,0,1,3.69.76,7.19,7.19,0,0,1,2.81,2.23V86.91Zm-6.4,22.51a5.78,5.78,0,0,0,2.25-2.32,7.65,7.65,0,0,0,0-6.85,5.6,5.6,0,0,0-2.25-2.3,6.42,6.42,0,0,0-3.2-.81,6.35,6.35,0,0,0-3.21.81,5.73,5.73,0,0,0-2.25,2.3,7.48,7.48,0,0,0,0,6.85,5.91,5.91,0,0,0,2.25,2.32,6.27,6.27,0,0,0,3.21.83A6.33,6.33,0,0,0,215.66,109.42Z"/><path class="cls-5" d="M244.67,96.08a7.33,7.33,0,0,1,2.05,5.66V113h-3.19v-2.46a5.45,5.45,0,0,1-2.41,2,9.13,9.13,0,0,1-3.71.69,7.83,7.83,0,0,1-5-1.51,5.19,5.19,0,0,1-.08-7.93q1.78-1.49,5.69-1.49h5.34v-.67a4.31,4.31,0,0,0-1.26-3.34,5.38,5.38,0,0,0-3.73-1.16,9.66,9.66,0,0,0-3.23.55,8.13,8.13,0,0,0-2.67,1.46l-1.41-2.54a10.23,10.23,0,0,1,3.45-1.77,14.37,14.37,0,0,1,4.25-.62A8.5,8.5,0,0,1,244.67,96.08Zm-3.36,13.66a4.93,4.93,0,0,0,2-2.45v-2.6h-5.2q-4.29,0-4.29,2.88a2.63,2.63,0,0,0,1.09,2.22,5,5,0,0,0,3,.81A6.28,6.28,0,0,0,241.31,109.74Z"/><path class="cls-6" d="M267,111.9a5,5,0,0,1-1.83,1,7.76,7.76,0,0,1-2.25.34,6,6,0,0,1-4.36-1.51,5.78,5.78,0,0,1-1.54-4.33V97.14h-3.17V94.36H257V90.28h3.37v4.08h5.34v2.78h-5.34v10.08a3.24,3.24,0,0,0,.76,2.32,2.8,2.8,0,0,0,2.16.81,4,4,0,0,0,2.63-.88Z"/><path class="cls-7" d="M274.61,90.14A2.07,2.07,0,0,1,274,88.6a2.17,2.17,0,0,1,.65-1.57,2.23,2.23,0,0,1,1.64-.65,2.28,2.28,0,0,1,1.63.62,2,2,0,0,1,.65,1.53,2.32,2.32,0,0,1-3.92,1.61Zm-.05,4.22h3.37V113h-3.37Z"/><path class="cls-8" d="M303.46,96.24c1.4,1.37,2.09,3.38,2.09,6V113h-3.37V102.65a5.69,5.69,0,0,0-1.3-4.07,4.88,4.88,0,0,0-3.73-1.37,5.8,5.8,0,0,0-4.32,1.6,6.24,6.24,0,0,0-1.58,4.58V113h-3.37V94.36h3.23v2.81A6.52,6.52,0,0,1,293.87,95a9.57,9.57,0,0,1,3.95-.78A7.73,7.73,0,0,1,303.46,96.24Z"/><path class="cls-9" d="M333.25,94.36v16.1q0,4.88-2.43,7.22T323.58,120a17.38,17.38,0,0,1-5-.72,9.91,9.91,0,0,1-3.86-2.05l1.61-2.6a9.49,9.49,0,0,0,3.22,1.77,12,12,0,0,0,4,.65,6.67,6.67,0,0,0,4.84-1.54,6.37,6.37,0,0,0,1.56-4.71v-1.48a7.47,7.47,0,0,1-2.93,2.16,9.79,9.79,0,0,1-3.78.72,10.19,10.19,0,0,1-4.83-1.14,8.37,8.37,0,0,1-3.39-3.2,9.49,9.49,0,0,1,0-9.38,8.38,8.38,0,0,1,3.39-3.18,10.3,10.3,0,0,1,4.83-1.13,9.8,9.8,0,0,1,3.92.78,7.37,7.37,0,0,1,3,2.28V94.36Zm-6.42,14.13a5.88,5.88,0,0,0,2.29-2.16,6.16,6.16,0,0,0,.82-3.15,5.71,5.71,0,0,0-1.79-4.37,7.23,7.23,0,0,0-9.24,0,5.68,5.68,0,0,0-1.8,4.37,6.07,6.07,0,0,0,.83,3.15,5.78,5.78,0,0,0,2.28,2.16,7.07,7.07,0,0,0,3.32.77A7,7,0,0,0,326.83,108.49Z"/><path class="cls-10" d="M46.08,27.39V77.48H34.49V56.94H11.74V77.48H.15V27.39H11.74V47.14H34.49V27.39Z"/><path class="cls-11" d="M106.08,66.75H82.83L78.39,77.48H66.52L88.84,27.39h11.45l22.39,50.09H110.52ZM102.43,58,94.49,38.77,86.55,58Z"/><path class="cls-12" d="M186.55,56A12.54,12.54,0,0,1,189,63.81a11.59,11.59,0,0,1-5.12,10.13q-5.12,3.54-14.92,3.54H143V27.39h24.47q9.17,0,14.06,3.51a11.1,11.1,0,0,1,4.9,9.52,12,12,0,0,1-6.65,11A13.31,13.31,0,0,1,186.55,56Zm-32-19.86V47.93h11.52q4.29,0,6.51-1.5A5,5,0,0,0,174.81,42a4.92,4.92,0,0,0-2.22-4.4,11.84,11.84,0,0,0-6.51-1.47ZM175,67.25a5.15,5.15,0,0,0,2.33-4.65q0-6.23-9.23-6.23H154.56V68.75h13.53Q172.66,68.75,175,67.25Z"/><path class="cls-13" d="M212.92,27.39h11.59V77.48H212.92Z"/><path class="cls-14" d="M295,56a12.54,12.54,0,0,1,2.43,7.83,11.58,11.58,0,0,1-5.11,10.13q-5.11,3.54-14.92,3.54h-25.9V27.39H276q9.17,0,14.06,3.51a11.1,11.1,0,0,1,4.9,9.52,12,12,0,0,1-6.65,11A13.24,13.24,0,0,1,295,56ZM263,36.12V47.93h11.52q4.29,0,6.51-1.5A5,5,0,0,0,283.29,42a4.92,4.92,0,0,0-2.22-4.4,11.84,11.84,0,0,0-6.51-1.47Zm20.43,31.13a5.16,5.16,0,0,0,2.32-4.65q0-6.23-9.23-6.23H263V68.75h13.52C279.61,68.75,281.92,68.25,283.47,67.25Z"/><path class="cls-15" d="M321.39,27.39H333V77.48H321.39Z"/><path class="cls-16" d="M225,19.62c0-.33,0-.67-.07-1A7.19,7.19,0,0,1,227,13c.53-.55,1.1-1.06,1.66-1.59a8,8,0,0,0,2.23-3.2,6.18,6.18,0,0,0,0-4.61A5.68,5.68,0,0,0,226.13,0a5.88,5.88,0,0,0-5.85,3.42,5.67,5.67,0,0,0-.34,1.47,15.33,15.33,0,0,0-1.14-1.8,6.16,6.16,0,0,0-5-2.35,5.65,5.65,0,0,0-5.32,4.68,7.33,7.33,0,0,0,2,6.56,19.17,19.17,0,0,0,4.65,3.56,47.24,47.24,0,0,0,9.32,3.9l.49.15S225,19.63,225,19.62Z"/><path class="cls-17" d="M322,19.62c0-.33,0-.67.07-1a7.19,7.19,0,0,0-2-5.61c-.53-.55-1.11-1.06-1.66-1.59a8,8,0,0,1-2.23-3.2,6.18,6.18,0,0,1,0-4.61A5.68,5.68,0,0,1,320.88,0a5.88,5.88,0,0,1,5.85,3.42,5.67,5.67,0,0,1,.34,1.47,13.71,13.71,0,0,1,1.14-1.8,6.16,6.16,0,0,1,5-2.35,5.65,5.65,0,0,1,5.32,4.68,7.33,7.33,0,0,1-2,6.56,19.17,19.17,0,0,1-4.65,3.56,47.24,47.24,0,0,1-9.32,3.9l-.49.15S322,19.63,322,19.62Z"/></g></g></svg>